<svg id="Layer_1" data-name="Layer 1" xmlns="http://www.w3.org/2000/svg" viewBox="0 0 466.66665 633.33331">
  <defs>
    <style>
      .cls-1, .cls-2, .cls-3 {
        fill: #d99938;
      }

      .cls-1 {
        fill-opacity: 0.24;
      }

      .cls-3 {
        fill-rule: evenodd;
      }
    </style>
  </defs>
  <circle class="cls-1" cx="233.33332" cy="233.33332" r="233.33332"/>
  <path class="cls-2" d="M433.333,503.334a16.66679,16.66679,0,0,1-16.667-16.667V403.333H383.333v83.334a16.66651,16.66651,0,1,1-33.333,0V403.333H325A58.333,58.333,0,1,1,383.333,345v25h33.333V345A58.334,58.334,0,1,1,475,403.333H449.999v83.334A16.666,16.666,0,0,1,433.333,503.334ZM449.999,370H475a25,25,0,1,0-25.001-25ZM325,320a25,25,0,0,0,0,50h25V345A25.0288,25.0288,0,0,0,325,320Z" transform="translate(-166.66666 -86.66666)"/>
  <path class="cls-3" d="M500,572.1233a5.1337,5.1337,0,0,0-7.2-4.64,234.049,234.049,0,0,1-185.59833,0A5.13426,5.13426,0,0,0,300,572.1233v64.54334A83.33385,83.33385,0,0,0,383.33332,720h33.33333A83.33385,83.33385,0,0,0,500,636.66664Z" transform="translate(-166.66666 -86.66666)"/>
</svg>
